<?xml version="1.0" standalone="no"?>
<!DOCTYPE svg PUBLIC "-//W3C//DTD SVG 20010904//EN"
 "http://www.w3.org/TR/2001/REC-SVG-20010904/DTD/svg10.dtd">
<svg version="1.0" xmlns="http://www.w3.org/2000/svg"
 width="300.000000pt" height="300.000000pt" viewBox="0 0 300.000000 300.000000"
 preserveAspectRatio="xMidYMid meet">
<metadata>
Created by potrace 1.14, written by Peter Selinger 2001-2017
</metadata>
<g transform="translate(0.000000,300.000000) scale(0.100000,-0.100000)"
fill="#000000" stroke="none">
<path d="M2180 2833 l0 -58 -115 4 -115 3 0 -26 c0 -25 2 -26 64 -26 93 0 156
-10 156 -26 0 -9 -8 -12 -28 -8 -37 8 -65 -23 -60 -67 3 -28 12 -39 46 -56 6
-3 -27 -60 -42 -72 -26 -21 -20 -51 9 -51 30 0 72 58 91 128 34 121 35 122 76
115 35 -5 38 -4 38 19 0 18 -8 27 -35 36 -33 13 -34 14 -37 75 -3 56 -5 62
-25 65 -22 3 -23 0 -23 -55z"/>
<path d="M1575 2809 c-33 -5 -74 -6 -92 -3 -36 5 -47 -6 -38 -37 7 -21 12 -21
86 -15 43 4 79 5 79 3 0 -2 -11 -18 -25 -37 -28 -38 -32 -84 -11 -134 15 -36
50 -66 78 -66 27 0 22 28 -12 67 -44 50 -40 78 21 135 28 26 58 48 65 48 8 0
14 10 14 25 0 24 -3 25 -52 24 -29 -1 -80 -5 -113 -10z"/>
<path d="M1830 2781 c0 -45 10 -61 37 -61 24 0 25 2 18 37 -9 48 -12 53 -36
53 -14 0 -19 -7 -19 -29z"/>
<path d="M1086 2782 c-10 -16 -26 -165 -20 -190 3 -15 12 -48 21 -74 12 -40
19 -48 39 -48 28 0 30 13 8 66 -13 32 -15 59 -10 147 6 102 5 107 -13 107 -11
0 -22 -3 -25 -8z"/>
<path d="M1218 2779 c-10 -5 -18 -18 -18 -28 0 -15 10 -17 80 -17 l81 0 -3 25
c-3 24 -7 26 -63 28 -33 2 -68 -2 -77 -8z"/>
<path d="M1750 2757 c0 -28 17 -47 42 -47 11 0 18 7 18 19 0 35 -12 51 -36 51
-18 0 -24 -5 -24 -23z"/>
<path d="M716 2728 c-3 -13 -6 -38 -6 -55 0 -30 -3 -33 -29 -33 -52 0 -81 -17
-81 -46 0 -23 3 -26 25 -20 14 3 37 9 52 12 l26 7 -6 -102 -5 -101 24 0 c29 0
33 15 36 125 l3 80 43 -40 c47 -42 46 -37 26 -133 -6 -31 -5 -33 17 -30 27 3
49 41 56 97 4 31 0 42 -36 82 -22 26 -54 52 -71 59 -31 13 -31 14 -24 66 6 53
6 54 -19 54 -17 0 -26 -7 -31 -22z"/>
<path d="M2457 2733 c-8 -10 -31 -52 -50 -93 -18 -41 -55 -112 -81 -158 -53
-94 -55 -117 -12 -117 28 0 34 9 118 173 74 143 87 175 78 192 -13 25 -32 26
-53 3z"/>
<path d="M840 2697 c0 -15 11 -28 34 -41 19 -10 49 -33 68 -52 39 -40 68 -44
68 -11 0 25 -32 60 -94 101 -49 33 -76 34 -76 3z"/>
<path d="M347 2603 c-24 -23 28 -127 131 -261 65 -85 84 -99 106 -76 19 19 13
33 -49 114 -64 83 -115 167 -115 188 0 10 -5 23 -12 30 -13 13 -50 16 -61 5z"/>
<path d="M1200 2580 c0 -29 75 -80 117 -80 29 0 33 3 33 25 0 19 -5 25 -21 25
-11 0 -35 11 -53 25 -41 31 -76 33 -76 5z"/>
<path d="M1549 2373 c-13 -9 -43 -34 -66 -56 -22 -21 -46 -37 -51 -33 -5 3
-17 21 -26 41 -10 21 -24 35 -35 35 -11 0 -45 -28 -76 -62 -55 -59 -59 -61
-71 -43 -36 54 -40 58 -63 50 -16 -5 -34 -30 -59 -84 l-36 -76 -9 37 c-5 20
-17 44 -27 53 -27 25 -51 7 -106 -80 l-48 -75 -28 32 -28 33 -25 -28 c-14 -16
-33 -55 -42 -88 -9 -32 -19 -59 -22 -59 -3 0 -19 11 -35 25 -56 48 -74 26 -83
-100 l-6 -84 -27 14 c-29 15 -113 96 -138 133 -8 13 -16 49 -18 82 -3 66 -27
121 -73 164 -24 23 -42 30 -86 34 -112 9 -140 -29 -87 -117 15 -25 33 -58 39
-73 11 -24 10 -26 -5 -21 -9 4 -32 16 -50 26 -68 40 -68 -25 0 -99 43 -47 74
-65 148 -85 31 -9 65 -31 110 -73 36 -34 84 -72 107 -86 24 -14 41 -30 38 -37
-4 -13 -85 -135 -108 -164 -6 -9 -22 -21 -34 -28 -13 -6 -23 -18 -23 -25 0
-24 32 -27 75 -6 23 11 45 20 50 20 5 0 22 12 38 28 l29 27 -6 -35 c-4 -19 -9
-97 -13 -172 l-6 -138 -128 0 -129 0 0 -80 c0 -79 0 -80 25 -80 23 0 25 -4 25
-40 l0 -40 40 0 c40 0 40 0 40 -39 0 -40 0 -40 43 -43 42 -3 42 -3 44 -43 1
-32 0 -35 -6 -15 l-7 25 -22 -35 c-31 -51 -38 -112 -17 -165 34 -90 209 -212
377 -264 96 -29 312 -70 412 -77 99 -8 91 2 106 -134 5 -52 13 -107 16 -123
l6 -27 294 0 c229 0 294 3 294 13 0 6 -19 46 -43 87 -33 58 -59 88 -123 140
l-81 66 91 28 c95 29 249 97 261 115 3 6 31 11 61 11 131 0 254 126 254 262 0
35 -25 96 -50 123 -19 20 -19 21 38 92 95 120 155 262 155 371 0 43 1 44 56
69 47 21 61 23 87 14 52 -18 142 -14 180 9 33 21 80 88 69 99 -4 3 -27 11 -53
16 l-46 10 34 33 c19 19 52 45 73 59 20 14 37 30 37 35 0 20 -63 100 -93 119
-104 63 -248 -23 -264 -159 -5 -45 -9 -51 -43 -66 -20 -9 -39 -16 -42 -16 -14
0 -15 96 -1 137 13 39 13 46 -1 67 -8 13 -31 29 -51 36 l-35 11 16 31 c21 41
6 76 -36 84 -33 7 -35 12 -18 49 16 36 -8 59 -61 57 l-40 -2 15 35 c16 39 19
91 5 100 -9 5 -80 -7 -115 -21 -15 -6 -17 -2 -12 27 3 19 8 47 11 63 9 60 -33
72 -117 31 -65 -31 -68 -31 -68 3 0 37 -26 72 -53 72 -12 0 -46 -11 -75 -25
-30 -14 -55 -25 -57 -25 -2 0 -6 13 -10 29 -11 49 -27 55 -82 31 -26 -11 -55
-28 -65 -36 -22 -21 -34 -12 -60 42 -26 56 -47 68 -79 47z m-313 -276 c9 -24
-14 -67 -36 -67 -16 0 -20 7 -20 33 0 19 3 37 7 40 11 12 43 8 49 -6z m362
-34 c-2 -30 -7 -38 -23 -38 -13 0 -21 8 -23 23 -5 34 5 52 28 52 18 0 21 -5
18 -37z m-288 -380 c-1 -78 -56 -268 -104 -356 -25 -47 -28 -59 -17 -66 26
-17 87 12 226 107 130 89 174 122 235 176 l45 41 3 -63 c4 -76 -24 -195 -65
-279 l-28 -58 -480 -2 c-364 -2 -481 1 -487 10 -17 26 -8 178 18 315 7 38 19
24 31 -36 14 -75 48 -152 66 -152 15 0 41 56 32 69 -13 22 51 207 88 254 20
24 27 21 27 -13 0 -26 32 -240 46 -312 10 -50 37 -34 99 60 117 176 265 346
265 305z m664 -259 c8 -54 16 -130 18 -169 l3 -70 -164 -3 -164 -3 80 88 c68
76 118 139 189 241 9 13 18 22 20 20 2 -2 10 -49 18 -104z m196 -298 c7 -47 9
-110 5 -156 -6 -70 -10 -80 -36 -99 -51 -38 -26 -78 36 -58 44 13 102 1 131
-28 56 -56 6 -192 -90 -242 -16 -8 -54 -14 -86 -14 -48 0 -66 -5 -106 -31 -96
-61 -204 -102 -340 -127 -25 -5 -43 -6 -41 -2 17 32 58 126 63 146 4 16 0 34
-10 50 -15 23 -21 25 -74 20 -103 -11 -181 -27 -193 -41 -19 -24 -1 -61 64
-128 l62 -64 -71 -6 c-139 -12 -477 36 -637 90 -94 32 -185 84 -251 145 -65
59 -76 93 -51 157 l17 42 106 0 c80 0 109 -4 122 -15 17 -15 50 -11 50 6 0 5
36 9 79 9 l80 0 3 38 c3 36 4 37 46 40 42 3 42 3 42 43 0 39 0 39 40 39 l40 0
0 80 0 80 55 0 55 0 0 -80 0 -80 40 0 c40 0 40 0 40 -39 0 -39 1 -40 38 -43
35 -3 37 -5 38 -41 l1 -37 -4 35 c-3 27 -9 35 -24 35 -14 0 -19 -7 -19 -29 0
-47 10 -61 40 -61 16 0 32 5 35 10 4 6 93 10 235 10 l229 0 3 38 c3 35 5 37
41 40 36 3 37 4 37 43 0 39 0 39 40 39 l40 0 0 40 c0 36 3 40 25 40 25 0 25 1
25 79 0 51 -4 81 -11 83 -9 3 -8 10 1 28 17 32 25 15 40 -84z m-1640 -66 c0
-39 1 -40 35 -40 34 0 35 1 37 43 l1 42 4 -42 c4 -37 8 -43 26 -43 20 0 22 4
19 40 -4 35 -2 40 17 40 18 0 21 -6 21 -40 l0 -40 40 0 40 0 0 -40 0 -40 40 0
40 0 0 -45 0 -45 -42 2 -43 1 38 4 c28 3 37 9 37 23 0 44 -9 50 -81 50 l-69 0
0 -40 0 -40 -45 0 -45 0 0 40 0 40 -40 0 -40 0 0 40 0 40 -40 0 -40 0 0 45 0
45 45 0 45 0 0 -40z m910 0 l0 -40 40 0 40 0 0 40 0 40 40 0 40 0 0 -40 0 -40
45 0 45 0 0 -40 0 -40 40 0 40 0 0 -45 0 -45 -45 0 -45 0 0 40 0 40 -40 0 -40
0 0 -40 0 -40 -40 0 c-40 0 -40 0 -40 39 0 40 0 40 -42 43 -42 3 -43 4 -46 40
-3 35 -5 37 -40 40 -36 3 -37 4 -40 46 l-3 42 45 0 46 0 0 -40z m175 -587
c-24 -56 -30 -58 -64 -16 l-31 38 22 7 c13 3 38 6 56 7 l32 1 -15 -37z m-97
-229 c52 -36 6 -113 -53 -86 -45 21 -29 100 20 102 6 0 21 -7 33 -16z"/>
<path d="M610 975 c0 -33 2 -35 35 -35 33 0 35 2 35 35 0 33 -2 35 -35 35 -33
0 -35 -2 -35 -35z"/>
<path d="M610 896 c0 -35 1 -36 36 -36 34 0 35 1 32 33 -3 28 -7 32 -35 35
-32 3 -33 2 -33 -32z"/>
<path d="M1374 1074 c3 -9 6 -24 6 -35 0 -14 7 -19 25 -19 22 0 25 4 25 35 0
32 -2 35 -31 35 -24 0 -30 -3 -25 -16z"/>
<path d="M1443 975 c0 -22 2 -30 4 -17 2 12 2 30 0 40 -3 9 -5 -1 -4 -23z"/>
<path d="M1520 975 c0 -34 1 -35 40 -35 39 0 40 1 40 35 0 34 -1 35 -40 35
-39 0 -40 -1 -40 -35z"/>
</g>
</svg>
